<?xml version="1.0" standalone="no"?>
<!DOCTYPE svg PUBLIC "-//W3C//DTD SVG 20010904//EN"
 "http://www.w3.org/TR/2001/REC-SVG-20010904/DTD/svg10.dtd">
<svg version="1.0" xmlns="http://www.w3.org/2000/svg"
 width="246.000000pt" height="246.000000pt" viewBox="0 0 246.000000 246.000000"
 preserveAspectRatio="xMidYMid meet">
<metadata>
Created by potrace 1.11, written by Peter Selinger 2001-2013
</metadata>
<g transform="translate(0.000000,246.000000) scale(0.100000,-0.100000)"
fill="#000000" stroke="none">
<path d="M590 2210 c-51 -15 -108 -50 -136 -84 -29 -35 -31 -36 -162 -55 -183
-27 -238 -60 -278 -173 -19 -54 -15 -136 21 -423 8 -66 17 -132 20 -148 5 -28
22 -126 30 -174 2 -15 9 -51 16 -81 10 -52 8 -83 -18 -207 -20 -99 19 -205 97
-261 31 -22 49 -44 53 -62 9 -46 61 -105 118 -136 62 -34 99 -36 394 -21 208
11 301 12 350 2 36 -7 214 -38 290 -52 32 -5 218 -33 275 -41 81 -11 116 -16
140 -19 14 -3 45 -7 70 -10 25 -2 59 -7 75 -9 17 -3 72 -8 122 -12 88 -6 95
-5 149 21 83 40 121 100 140 219 3 21 8 48 10 60 5 25 33 215 39 266 31 261
36 327 42 638 4 203 2 284 -7 318 -13 47 -86 138 -119 149 -14 4 -20 20 -25
67 -12 102 -61 174 -145 211 -42 19 -59 19 -290 13 -236 -6 -319 -9 -496 -21
-167 -11 -241 -17 -260 -19 -11 -2 -47 0 -80 5 -33 5 -80 11 -105 14 -25 3
-58 7 -75 9 -47 6 -146 17 -190 20 -22 2 -51 0 -65 -4z m197 -73 c3 -4 -11 -7
-33 -8 -21 0 -46 -2 -55 -4 -8 -1 -42 -6 -75 -10 -46 -5 -56 -4 -47 6 29 30
184 42 210 16z m1293 -20 c48 -21 89 -63 112 -115 11 -24 18 -45 16 -48 -2 -2
-53 8 -114 21 -135 31 -473 99 -574 116 -77 12 -108 24 -67 26 253 9 442 16
444 17 11 9 156 -5 183 -17z m-770 -46 c36 -6 76 -13 90 -16 53 -8 96 -16 110
-20 8 -2 33 -6 55 -10 71 -10 452 -89 583 -121 70 -17 72 -18 73 -48 0 -17 2
-58 5 -91 l5 -60 -26 36 c-33 46 -87 75 -150 83 -27 3 -84 10 -125 15 -41 6
-97 13 -125 16 -27 3 -66 7 -85 10 -19 2 -69 7 -110 10 -41 3 -91 8 -110 10
-19 2 -80 7 -135 11 -55 3 -120 8 -145 10 -25 2 -194 6 -377 10 -324 7 -332 7
-371 -14 l-41 -21 25 67 c14 37 28 69 30 71 5 6 11 7 90 15 63 7 139 17 165
21 8 2 51 6 95 10 43 4 106 10 139 14 80 11 255 6 335 -8z m-920 -68 c0 -4
-22 -70 -49 -147 -60 -172 -118 -363 -157 -515 -31 -126 -32 -126 -48 19 -4
30 -9 66 -11 80 -2 14 -7 48 -9 75 -3 28 -8 75 -11 105 -14 128 -13 195 1 229
37 88 102 135 204 147 30 3 57 8 59 10 7 7 21 4 21 -3z m730 -158 c85 -3 171
-8 190 -10 20 -2 74 -6 120 -9 138 -10 232 -19 405 -41 232 -29 245 -33 288
-84 41 -50 50 -92 43 -210 -12 -203 -33 -387 -61 -546 -8 -44 -17 -95 -20
-113 -4 -26 -29 -145 -39 -187 -1 -5 -6 -24 -10 -42 -8 -36 -11 -38 -121 -53
-125 -17 -134 -18 -230 -30 -130 -16 -153 -18 -225 -25 -36 -3 -81 -8 -100
-10 -166 -19 -277 -24 -313 -15 -18 5 -45 11 -62 13 -125 20 -499 108 -513
121 -12 11 -17 40 -36 182 -20 155 -27 612 -13 827 9 145 48 211 138 235 37 9
308 8 559 -3z m1241 -104 c11 -33 7 -486 -5 -611 -3 -30 -8 -80 -11 -110 -6
-63 -24 -213 -31 -250 -2 -14 -13 -81 -25 -150 -22 -137 -42 -192 -83 -233
-65 -65 -119 -73 -321 -46 l-130 17 85 1 c58 1 98 7 125 20 46 20 102 79 111
116 3 14 13 25 20 25 19 0 84 33 109 57 58 52 78 108 90 251 3 37 8 85 10 108
16 136 22 555 11 774 l-6 115 20 -25 c11 -14 25 -40 31 -59z m-2014 -358 c-1
-225 7 -458 17 -523 3 -14 7 -54 10 -90 4 -36 9 -84 12 -107 7 -48 4 -50 -58
-31 -48 14 -49 16 -95 213 -22 96 -33 162 -29 185 12 76 19 110 51 245 32 136
89 355 91 355 1 0 1 -111 1 -247z m1894 -110 c-2 -201 -14 -383 -32 -503 -11
-68 -31 -110 -73 -149 -31 -29 -33 -21 -12 71 19 81 22 95 50 263 25 147 30
180 42 285 4 36 8 72 10 80 1 8 3 37 3 64 1 27 4 46 7 43 4 -4 6 -73 5 -154z
m-1781 -769 c34 -31 91 -54 137 -54 25 0 33 -3 25 -9 -8 -4 -48 -7 -90 -6
-103 3 -150 27 -210 106 -12 16 -8 16 50 2 35 -9 74 -26 88 -39z m1520 -30
c-14 -15 -44 -35 -68 -46 -40 -18 -58 -19 -250 -13 -114 4 -215 7 -224 7 -10
-1 -18 3 -18 7 0 4 6 8 13 8 18 1 158 14 187 18 14 2 48 6 75 9 28 4 66 9 85
11 19 3 58 8 85 11 28 4 51 7 52 8 1 1 22 3 45 5 l42 2 -24 -27z"/>
<path d="M1237 1549 c-12 -7 -100 -11 -236 -11 l-218 0 -121 -211 -122 -212
236 -3 c131 -1 239 0 241 2 3 3 -12 33 -32 68 -21 35 -49 83 -63 108 -13 25
-43 77 -65 115 -22 39 -42 73 -44 77 -2 4 92 6 209 5 l213 -2 3 -367 2 -368
-95 0 c-95 0 -95 0 -95 -25 0 -17 6 -25 18 -26 9 0 105 -1 212 -2 l195 0 3 26
3 27 -95 0 -96 0 2 368 3 367 213 2 213 3 -24 -43 c-13 -23 -61 -106 -107
-185 -45 -78 -80 -145 -78 -148 3 -2 111 -3 241 -2 l236 3 -122 211 -122 212
-221 0 c-140 0 -230 4 -242 11 -25 13 -22 13 -45 0z m41 -36 c-4 -22 -22 -20
-26 1 -2 10 3 16 13 16 10 0 15 -7 13 -17z m535 -195 c101 -177 96 -158 35
-158 -54 0 -54 0 -54 33 -2 65 -2 65 -39 65 l-35 0 0 -49 0 -49 -65 0 -65 0
52 88 c28 48 63 108 77 135 14 26 27 47 28 47 1 0 30 -51 66 -112z m-980 25
c69 -120 97 -171 97 -177 0 -3 -25 -6 -55 -6 l-55 0 0 48 0 48 -37 -1 -38 0 1
-47 0 -48 -58 0 c-32 0 -58 2 -58 4 0 4 15 31 106 188 21 37 42 68 46 68 3 0
26 -35 51 -77z"/>
</g>
</svg>
